<svg width="24" height="24" viewBox="0 0 24 24" fill="none" xmlns="http://www.w3.org/2000/svg">
<rect width="24" height="24" rx="6" fill="url(#paint0_linear_602_978)"/>
<path d="M8.63542 8.39589C6.34393 9.00352 5.28696 11.2869 5.59806 13.602C5.9674 16.3505 8.0275 18.1557 11.7783 19.0173L12.078 19.0834C15.9149 18.25 18.0748 16.4229 18.5579 13.602C18.9532 11.2933 17.812 9.00352 15.5205 8.39582C14.3002 8.07231 13.0619 8.30268 12.0788 8.93174C11.0948 8.30283 9.85604 8.07225 8.63542 8.39589ZM8.63542 8.39589C10.927 7.78837 13.2823 9.13402 13.8963 11.4016M14.5 5.33333L14.3717 5.37609C12.9553 5.84822 12 7.17369 12 8.66666V6.54951C12 5.3578 11.1588 4.33177 9.99028 4.09806L7.83333 3.66666V4.11715C7.83333 5.30886 8.67447 6.33489 9.84304 6.56861L12 7" stroke="#FEEFED" stroke-linecap="round"/>
<defs>
<linearGradient id="paint0_linear_602_978" x1="12" y1="0" x2="12" y2="24" gradientUnits="userSpaceOnUse">
<stop stop-color="#FF7363"/>
<stop offset="1" stop-color="#A35CFD"/>
</linearGradient>
</defs>
</svg>
